<svg width="22" height="38" viewBox="0 0 22 38" fill="none" xmlns="http://www.w3.org/2000/svg">
<path d="M19.8822 36.6046C19.0404 37.3206 17.9037 37.3632 17.3436 36.6994L1.15331 17.639C0.593221 16.9752 0.822007 15.8566 1.66386 15.1407C1.87714 14.9591 2.10912 14.8211 2.34608 14.7265C3.04428 14.4485 3.78426 14.5499 4.20271 15.0457L20.3926 34.1061C20.9527 34.7699 20.7243 35.8885 19.8822 36.6046Z" fill="#7B4AE2"/>
<path d="M19.302 16.6982L15.4524 19.8261C14.5603 20.5508 13.249 20.4156 12.5239 19.5244C11.7984 18.6328 11.9337 17.3224 12.8258 16.5977L14.6888 15.084L1.1628 3.69456C0.270679 2.96988 0.135401 1.65945 0.860888 0.768248C1.27219 0.262199 1.87226 -3.8147e-06 2.47712 -3.8147e-06C2.93852 -3.8147e-06 3.40332 0.152575 3.78906 0.466215L19.302 13.4698C19.7879 13.8649 20.0704 14.4578 20.0704 15.084C20.0704 15.7103 19.7879 16.3028 19.302 16.6982Z" fill="white"/>
<path d="M2.20766 35.8101C1.10256 35.8013 0.213495 34.8988 0.222354 33.7941L0.394451 1.9843C0.40331 0.879578 1.30667 -0.00855255 2.41176 0.000301361C2.69187 0.00234604 2.95767 0.0619469 3.19893 0.167515C3.90943 0.479111 4.40387 1.19119 4.3974 2.01633L4.22497 33.8258C4.21611 34.9305 3.31309 35.819 2.20766 35.8101Z" fill="white"/>
</svg>
