<svg width="2000" height="1333" viewBox="0 0 2000 1333" fill="none" xmlns="http://www.w3.org/2000/svg">
<path d="M996 386H1006L1023 389L1036 394L1050 402L1061 411L1066 416V418H1068L1079 434L1088 451L1094 469L1097 486L1098 492V520L1094 538L1090 552L1085 563L1083 568L1084 575L1086 583V602L1083 614L1078 624L1073 629L1066 634V638H1068L1076 648L1078 649V651L1082 653L1090 659L1092 660V662L1098 664L1108 668L1112 669H1127L1138 665L1147 659L1154 651L1163 635L1167 622L1168 616V594L1166 584L1163 574L1157 562L1145 548L1136 538L1128 528L1121 518L1114 506L1110 498L1107 484V474L1110 467L1114 461L1121 456L1129 453H1146L1155 456L1163 462L1165 466V470L1160 469H1144L1134 474L1131 478V487L1137 497L1141 501V503L1145 505V507L1149 509L1150 512L1154 514L1169 528L1178 538L1185 547L1197 566L1204 582L1208 593L1210 604V634L1207 646L1203 655L1196 669L1194 672H1192L1190 677L1179 689L1169 699L1160 706L1150 713L1158 715H1189L1208 710L1217 706L1228 700L1232 697H1234V695H1237V693L1245 686L1250 680H1252L1253 676L1259 668L1266 651L1269 636V624L1268 616H1270L1276 628L1280 645V674L1276 691L1269 706L1266 712H1264L1262 718H1260L1258 722L1249 732L1240 739L1229 746L1216 752L1203 756L1186 759L1188 761L1204 768L1208 770V772L1212 773L1222 782L1230 791L1238 805L1243 823L1244 828V848L1240 865L1232 882H1230L1228 886L1218 896L1208 901L1200 903H1185L1178 901L1182 899L1195 894L1206 886L1213 877L1219 862L1220 857V839L1217 827L1214 820L1210 814L1205 809L1196 803L1187 800L1178 798L1124 796L1103 793L1088 790L1082 788V796L1079 812L1074 827L1067 842L1054 866L1049 879V896L1055 906L1057 910L1061 912L1068 917L1076 920H1090L1099 917L1105 913L1108 910H1110V908H1112L1120 892L1122 884V873H1124L1129 882L1132 893V910L1127 922L1121 931L1111 939L1101 944L1091 947L1084 948H1076L1063 946L1051 941L1042 936L1030 924L1026 918V916H1024V912H1022L1018 901L1016 892V872L1019 855L1026 827L1031 808L1033 797V781L1030 773L1025 767L1018 764L1011 762H989L976 766L969 774L967 780V797L973 824L978 842L983 865L984 872V892L981 905L978 912H976L975 916L970 924H968L966 928L959 935L943 944L931 947L925 948H916L902 945L894 942L884 935L876 928L870 916L868 910V893L873 878L876 873H877L879 890L888 908L892 910V912L908 920H923L932 917L941 910L946 904L951 895V879L947 869L939 853L928 832L922 816L918 800V788L903 792L884 795L876 796L822 798L807 802L793 809V811H791L789 815L784 824L781 833L780 839V857L785 873L791 882L795 887L805 894L817 899L822 900L820 902L815 903H798L788 899L780 894L770 884L764 875L758 858L756 848V828L759 815L762 805L770 791L779 780L791 771L807 763L816 760L815 759L797 756L780 750L764 742V740L760 739L758 738V736L754 734L746 727V725H744L740 720V718H738L729 702L725 693L720 674V645L724 629L730 616H732L731 631L732 643L736 656L740 665L747 677L755 686V688L759 690L770 699L787 708L794 711L810 715L826 716L842 715L850 714L845 709L840 706V704L835 702L823 691L813 681L803 667L796 653L792 642L790 633V604L794 587L799 575L806 561L818 543L827 533L828 531H830L832 527L842 517L850 510H852V508L859 502L860 500H862L864 495H866L867 491L869 487V478L867 474L859 470L855 469H840L835 470L836 464L840 459L847 455L854 453H870L880 457L885 460V462L888 463L892 470L893 476V485L890 498L881 515L869 532L859 543L852 551L849 555H847L845 560L841 565L836 577L832 592V614L834 625L838 637L845 650L853 659L855 660V662L860 664L869 668L872 669H889L901 665L917 654L920 651H922V649L925 646H927L929 642L932 638H934L935 634L927 629L924 626V624H922L917 614L914 601V583L917 572V567L911 554L906 540L903 525L902 516V492L905 475L908 463L913 449L923 430L933 418L934 416H936L938 412H940L942 408L953 400L968 392L981 388L996 386Z" fill="#7B4AE2" fill-opacity="0.98"/>
<path d="M991 735H1010L1024 739L1033 744L1038 748V750H1040L1046 759L1050 767L1054 784V804L1050 828L1043 852L1039 865L1036 880V896L1039 906L1048 920L1057 928L1065 932L1071 934L1085 935L1094 933L1103 929L1114 921L1122 910L1126 899H1127L1126 913L1122 921L1113 931L1110 932V934L1097 940L1090 942H1069L1059 939L1047 933L1037 924L1029 913L1024 903L1022 895L1021 879L1023 859L1033 821L1037 805L1038 796V780L1035 771L1031 765L1023 760L1014 757H987L976 761L970 765L964 773L962 780V796L964 809L969 830L972 839L978 866L979 878V888L977 900L974 908L968 917L967 920H965V922H963L961 926L950 935L939 940L931 942H910L898 938L888 932L883 927L877 919L874 912L873 899L875 902L880 913L886 921L894 927L903 932L910 934H929L939 930L947 925L954 917L956 914H958L959 910L963 900L964 893V881L961 865L952 836L948 819L946 805V784L950 768L957 754L960 750H962V748H964V746L974 740L984 736L991 735Z" fill="#EEEEEE" fill-opacity="0.5"/>
<path d="M1136 462H1144L1148 464L1137 466L1132 467V469L1128 472L1126 477V487L1132 499L1141 509L1155 522L1162 528V530H1164V532L1168 534L1176 544L1187 559L1193 570L1198 580L1202 591L1204 598L1206 614V624L1204 636L1198 653L1190 667L1180 680L1162 698H1160V700L1154 704L1147 710H1140L1127 705L1115 698L1114 696H1132L1144 693L1157 686L1167 678L1173 671L1178 664L1183 654L1187 643L1189 634L1190 624V608L1188 593L1183 576L1174 559L1168 550V548H1166L1160 540V538H1158V536H1156L1151 531L1134 515L1124 503L1118 491L1117 487V478L1120 471L1125 466L1136 462Z" fill="#EEEEEE" fill-opacity="0.5"/>
<path d="M855 462H864L872 465L878 469L882 474L883 478V486L880 496L871 509L863 518L855 525L849 530L844 536L839 541L832 550L823 564L817 576L812 594L810 608V628L813 643L817 654L822 664V666H824L830 675L835 680L844 687L856 693L870 696H886L881 701L869 707L859 710H854L843 702L833 693L819 679L809 665L802 653L796 636L794 624V612L797 596L800 584L808 568L816 555L825 543L833 533H835L836 530H838V528L843 524L848 519L861 507L865 502H867L874 488V477L871 471L864 466L851 464L855 462Z" fill="#EEEEEE" fill-opacity="0.5"/>
<path d="M726 643H727L729 662L733 675L737 685L747 701L756 711L765 720L786 733L803 739L815 742L824 743H839L860 740L876 734L894 724L907 714L909 711H911L912 708L920 700H922V698L925 696L929 697V704L926 715L920 725L910 735L895 743L872 749L835 754H815L802 752L783 746L764 736V734L759 732L751 725L744 717L738 708L732 697L726 679L724 655L726 643Z" fill="#EEEEEE" fill-opacity="0.5"/>
<path d="M1273 640H1274L1276 654V664L1274 679L1269 694L1261 710L1251 723L1241 732L1232 738L1217 746L1197 752L1185 754H1163L1144 751L1128 749L1109 744L1099 740L1088 733L1080 725L1075 717L1072 710L1071 705V696L1076 697L1083 703L1093 713V715L1097 717L1102 721L1117 731L1131 737L1145 741L1160 743H1175L1190 741L1209 735L1221 729L1231 723L1239 716L1245 711L1253 701L1254 699H1256L1257 695L1262 687L1267 676L1271 661L1273 640Z" fill="#EEEEEE" fill-opacity="0.5"/>
<path d="M916 762H917V772L916 784L911 786L888 790L852 792L820 793L808 796L790 805V807L785 812L779 822L775 838V858L778 869L782 879L783 883H785V885L789 887L801 895L798 896L787 889L780 882L773 871L768 857L767 848V839L769 826L773 816L780 804L785 798H787V796L800 787L808 783L824 778L843 775L877 772L896 769L910 765L916 762Z" fill="#EEEEEE" fill-opacity="0.5"/>
<path d="M1083 762L1088 764L1103 769L1122 772L1166 776L1184 780L1195 785L1203 789L1211 795L1216 799L1224 810L1229 820L1232 830L1233 847L1231 860L1226 873L1220 882L1216 884L1218 879L1223 867L1225 858V836L1222 825L1217 815L1211 807L1203 801L1200 800V798L1183 794L1180 793L1143 792L1112 790L1085 785L1084 784L1083 772V762Z" fill="#EEEEEE" fill-opacity="0.5"/>
<path d="M1048 570H1059L1064 573L1068 578L1071 588V600L1067 609L1062 614L1059 616H1048L1042 612L1038 607L1036 601V585L1039 577H1041L1043 573L1048 570Z" fill="#EEEEEE" fill-opacity="0.5"/>
<path d="M942 570H951L959 575L963 582L964 584V602L959 611L954 615L952 616H941L936 613L930 603L929 592L931 581L935 575L940 571L942 570Z" fill="#EEEEEE" fill-opacity="0.5"/>
<path d="M1009 452H1019L1024 454V456L1027 457L1028 459V470L1023 476L1016 478L1009 477L1003 473L1000 467V461L1004 455L1009 452Z" fill="#EEEEEE" fill-opacity="0.5"/>
<path d="M982 417L992 418L996 423V429L991 434H981L977 430L976 424L980 418L982 417Z" fill="#EEEEEE" fill-opacity="0.5"/>
<path d="M980 624L982 626L983 636V676L982 685L980 687L978 682L977 645L978 630L980 624Z" fill="#EEEEEE" fill-opacity="0.5"/>
<path d="M969 472H978L983 478V484L980 488L977 489H970L966 487L964 484V477L969 472Z" fill="#EEEEEE" fill-opacity="0.5"/>
<path d="M1019 625L1021 626L1022 630V681L1020 686L1018 683L1017 676V644L1018 628L1019 625Z" fill="#EEEEEE" fill-opacity="0.5"/>
<path d="M1000 619L1002 622V690L1000 692L998 669V644L1000 619Z" fill="#EEEEEE" fill-opacity="0.5"/>
<path d="M988 518L993 519L996 523L995 528L993 530H986L983 527L982 523L985 519L988 518Z" fill="#EEEEEE" fill-opacity="0.5"/>
<path d="M947 446H953L956 448V455L952 458L946 457L943 453L944 448L947 446Z" fill="#EEEEEE" fill-opacity="0.5"/>
<path d="M1045 579H1050L1053 582V588L1050 591H1044L1042 589V581L1045 579Z" fill="#7B4AE2" fill-opacity="0.5"/>
<path d="M938 579L945 580L947 584L945 590L944 591L937 590L935 588L936 581L938 579Z" fill="#7B4AE2" fill-opacity="0.5"/>
<path d="M947 506H952L954 508V513L953 514H946L945 513V508L947 506Z" fill="#EEEEEE" fill-opacity="0.5"/>
<path d="M1215 884V887L1206 894L1202 896L1199 895L1203 894V892L1208 889L1215 884Z" fill="#EEEEEE" fill-opacity="0.5"/>
</svg>
